999
"DXF R12 Output" (www.mydxf.blogspot.com)
 0 
SECTION
 2 
HEADER
 9 
$ACADVER
 1 
AC1009
 9 
$EXTMIN
 10 
 0 
 20 
 0 
 9 
$EXTMAX
 10 
 8.5 
 20 
 11 
 0 
ENDSEC
 0 
SECTION
 2 
ENTITIES
0
LINE
8
Layer 1
10
0.846666
20
84.666700
11
-0.846666
21
82.973300
0
LINE
8
Layer 1
10
0.000000
20
85.231100
11
0.000000
21
82.408900
0
LINE
8
Layer 1
10
2.257780
20
82.691100
11
1.128890
21
81.562210
0
LINE
8
Layer 1
10
1.693330
20
83.255600
11
0.564440
21
82.126710
0
LINE
8
Layer 1
10
1.128890
20
83.820000
11
0.000000
21
82.691110
0
LINE
8
Layer 1
10
0.846666
20
84.666700
11
-0.846666
21
82.973300
0
LINE
8
Layer 1
10
0.000000
20
85.231100
11
0.000000
21
82.408900
0
LINE
8
Layer 1
10
2.257780
20
82.691100
11
1.128890
21
81.562210
0
LINE
8
Layer 1
10
1.693330
20
83.255600
11
0.564440
21
82.126710
0
LINE
8
Layer 1
10
1.128890
20
83.820000
11
0.000000
21
82.691110
0
LINE
8
Layer 1
10
0.846666
20
84.666700
11
-0.846666
21
82.973300
0
LINE
8
Layer 1
10
0.000000
20
85.231100
11
0.000000
21
82.408900
0
LINE
8
Layer 1
10
2.257780
20
82.691100
11
1.128890
21
81.562210
0
LINE
8
Layer 1
10
1.693330
20
83.255600
11
0.564440
21
82.126710
0
LINE
8
Layer 1
10
1.128890
20
83.820000
11
0.000000
21
82.691110
0
LINE
8
Layer 1
10
48.033000
20
10.668600
11
22.633000
21
10.668600
0
LINE
8
Layer 1
10
22.633000
20
10.668600
11
21.803262
21
10.750694
0
LINE
8
Layer 1
10
21.803262
20
10.750694
11
21.012975
21
10.990843
0
LINE
8
Layer 1
10
21.012975
20
10.990843
11
20.284346
21
11.379849
0
LINE
8
Layer 1
10
20.284346
20
11.379849
11
19.639584
21
11.908514
0
LINE
8
Layer 1
10
19.639584
20
11.908514
11
19.110919
21
12.553276
0
LINE
8
Layer 1
10
19.110919
20
12.553276
11
18.721913
21
13.281905
0
LINE
8
Layer 1
10
18.721913
20
13.281905
11
18.481764
21
14.072192
0
LINE
8
Layer 1
10
18.481764
20
14.072192
11
18.399670
21
14.901930
0
LINE
8
Layer 1
10
18.399670
20
14.901930
11
18.399700
21
61.468600
0
LINE
8
Layer 1
10
18.399700
20
61.468600
11
18.486341
21
63.199971
0
LINE
8
Layer 1
10
18.486341
20
63.199971
11
18.742180
21
64.881408
0
LINE
8
Layer 1
10
18.742180
20
64.881408
11
19.158707
21
66.504393
0
LINE
8
Layer 1
10
19.158707
20
66.504393
11
19.727416
21
68.060413
0
LINE
8
Layer 1
10
19.727416
20
68.060413
11
20.439799
21
69.540951
0
LINE
8
Layer 1
10
20.439799
20
69.540951
11
21.287347
21
70.937492
0
LINE
8
Layer 1
10
21.287347
20
70.937492
11
22.261555
21
72.241520
0
LINE
8
Layer 1
10
22.261555
20
72.241520
11
23.353913
21
73.444520
0
LINE
8
Layer 1
10
23.353913
20
73.444520
11
24.555915
21
74.537976
0
LINE
8
Layer 1
10
24.555915
20
74.537976
11
25.859053
21
75.513374
0
LINE
8
Layer 1
10
25.859053
20
75.513374
11
27.254818
21
76.362196
0
LINE
8
Layer 1
10
27.254818
20
76.362196
11
28.734704
21
77.075929
0
LINE
8
Layer 1
10
28.734704
20
77.075929
11
30.290203
21
77.646056
0
LINE
8
Layer 1
10
30.290203
20
77.646056
11
31.912807
21
78.064062
0
LINE
8
Layer 1
10
31.912807
20
78.064062
11
33.594009
21
78.321431
0
LINE
8
Layer 1
10
33.594009
20
78.321431
11
35.325300
21
78.409648
0
LINE
8
Layer 1
10
35.325300
20
78.409648
11
37.056671
21
78.323016
0
LINE
8
Layer 1
10
37.056671
20
78.323016
11
38.738108
21
78.067186
0
LINE
8
Layer 1
10
38.738108
20
78.067186
11
40.361093
21
77.650665
0
LINE
8
Layer 1
10
40.361093
20
77.650665
11
41.917113
21
77.081962
0
LINE
8
Layer 1
10
41.917113
20
77.081962
11
43.397651
21
76.369585
0
LINE
8
Layer 1
10
43.397651
20
76.369585
11
44.794192
21
75.522040
0
LINE
8
Layer 1
10
44.794192
20
75.522040
11
46.098220
21
74.547836
0
LINE
8
Layer 1
10
46.098220
20
74.547836
11
47.301220
21
73.455480
0
LINE
8
Layer 1
10
47.301220
20
73.455480
11
48.394676
21
72.253480
0
LINE
8
Layer 1
10
48.394676
20
72.253480
11
49.370074
21
70.950344
0
LINE
8
Layer 1
10
49.370074
20
70.950344
11
50.218896
21
69.554580
0
LINE
8
Layer 1
10
50.218896
20
69.554580
11
50.932629
21
68.074695
0
LINE
8
Layer 1
10
50.932629
20
68.074695
11
51.502756
21
66.519196
0
LINE
8
Layer 1
10
51.502756
20
66.519196
11
51.920762
21
64.896593
0
LINE
8
Layer 1
10
51.920762
20
64.896593
11
52.178131
21
63.215391
0
LINE
8
Layer 1
10
52.178131
20
63.215391
11
52.266348
21
61.484100
0
LINE
8
Layer 1
10
52.266348
20
61.484100
11
52.266400
21
14.902000
0
LINE
8
Layer 1
10
52.266400
20
14.902000
11
52.184306
21
14.072262
0
LINE
8
Layer 1
10
52.184306
20
14.072262
11
51.944157
21
13.281975
0
LINE
8
Layer 1
10
51.944157
20
13.281975
11
51.555151
21
12.553346
0
LINE
8
Layer 1
10
51.555151
20
12.553346
11
51.026486
21
11.908584
0
LINE
8
Layer 1
10
51.026486
20
11.908584
11
50.381724
21
11.379919
0
LINE
8
Layer 1
10
50.381724
20
11.379919
11
49.653095
21
10.990913
0
LINE
8
Layer 1
10
49.653095
20
10.990913
11
48.862808
21
10.750764
0
LINE
8
Layer 1
10
48.862808
20
10.750764
11
48.033070
21
10.668670
0
LINE
8
Layer 1
10
48.033070
20
10.668670
11
48.033000
21
10.668600
0
LINE
8
Layer 1
10
32.510800
20
65.717500
11
32.435178
21
65.999722
0
LINE
8
Layer 1
10
32.435178
20
65.999722
11
32.228577
21
66.206323
0
LINE
8
Layer 1
10
32.228577
20
66.206323
11
31.946355
21
66.281944
0
LINE
8
Layer 1
10
31.946355
20
66.281944
11
31.664133
21
66.206323
0
LINE
8
Layer 1
10
31.664133
20
66.206323
11
31.457532
21
65.999722
0
LINE
8
Layer 1
10
31.457532
20
65.999722
11
31.381911
21
65.717500
0
LINE
8
Layer 1
10
31.381911
20
65.717500
11
31.457533
21
65.435278
0
LINE
8
Layer 1
10
31.457533
20
65.435278
11
31.664134
21
65.228677
0
LINE
8
Layer 1
10
31.664134
20
65.228677
11
31.946356
21
65.153056
0
LINE
8
Layer 1
10
31.946356
20
65.153056
11
32.228578
21
65.228677
0
LINE
8
Layer 1
10
32.228578
20
65.228677
11
32.435178
21
65.435278
0
LINE
8
Layer 1
10
32.435178
20
65.435278
11
32.510800
21
65.717500
0
LINE
8
Layer 1
10
32.510800
20
65.717500
11
32.510800
21
65.717500
0
LINE
8
Layer 1
10
39.284100
20
65.717500
11
39.208478
21
65.999722
0
LINE
8
Layer 1
10
39.208478
20
65.999722
11
39.001877
21
66.206323
0
LINE
8
Layer 1
10
39.001877
20
66.206323
11
38.719655
21
66.281944
0
LINE
8
Layer 1
10
38.719655
20
66.281944
11
38.437433
21
66.206323
0
LINE
8
Layer 1
10
38.437433
20
66.206323
11
38.230832
21
65.999722
0
LINE
8
Layer 1
10
38.230832
20
65.999722
11
38.155211
21
65.717500
0
LINE
8
Layer 1
10
38.155211
20
65.717500
11
38.230833
21
65.435278
0
LINE
8
Layer 1
10
38.230833
20
65.435278
11
38.437433
21
65.228677
0
LINE
8
Layer 1
10
38.437433
20
65.228677
11
38.719655
21
65.153056
0
LINE
8
Layer 1
10
38.719655
20
65.153056
11
39.001877
21
65.228677
0
LINE
8
Layer 1
10
39.001877
20
65.228677
11
39.208478
21
65.435278
0
LINE
8
Layer 1
10
39.208478
20
65.435278
11
39.284099
21
65.717500
0
LINE
8
Layer 1
10
39.284099
20
65.717500
11
39.284100
21
65.717500
0
LINE
8
Layer 1
10
32.510800
20
57.231100
11
32.435178
21
57.513322
0
LINE
8
Layer 1
10
32.435178
20
57.513322
11
32.228577
21
57.719923
0
LINE
8
Layer 1
10
32.228577
20
57.719923
11
31.946355
21
57.795544
0
LINE
8
Layer 1
10
31.946355
20
57.795544
11
31.664133
21
57.719923
0
LINE
8
Layer 1
10
31.664133
20
57.719923
11
31.457532
21
57.513322
0
LINE
8
Layer 1
10
31.457532
20
57.513322
11
31.381911
21
57.231100
0
LINE
8
Layer 1
10
31.381911
20
57.231100
11
31.457533
21
56.948878
0
LINE
8
Layer 1
10
31.457533
20
56.948878
11
31.664134
21
56.742277
0
LINE
8
Layer 1
10
31.664134
20
56.742277
11
31.946356
21
56.666656
0
LINE
8
Layer 1
10
31.946356
20
56.666656
11
32.228578
21
56.742277
0
LINE
8
Layer 1
10
32.228578
20
56.742277
11
32.435178
21
56.948878
0
LINE
8
Layer 1
10
32.435178
20
56.948878
11
32.510800
21
57.231100
0
LINE
8
Layer 1
10
32.510800
20
57.231100
11
32.510800
21
57.231100
0
LINE
8
Layer 1
10
39.284100
20
57.250800
11
39.208478
21
57.533022
0
LINE
8
Layer 1
10
39.208478
20
57.533022
11
39.001877
21
57.739623
0
LINE
8
Layer 1
10
39.001877
20
57.739623
11
38.719655
21
57.815244
0
LINE
8
Layer 1
10
38.719655
20
57.815244
11
38.437433
21
57.739623
0
LINE
8
Layer 1
10
38.437433
20
57.739623
11
38.230832
21
57.533022
0
LINE
8
Layer 1
10
38.230832
20
57.533022
11
38.155211
21
57.250800
0
LINE
8
Layer 1
10
38.155211
20
57.250800
11
38.230833
21
56.968578
0
LINE
8
Layer 1
10
38.230833
20
56.968578
11
38.437433
21
56.761977
0
LINE
8
Layer 1
10
38.437433
20
56.761977
11
38.719655
21
56.686356
0
LINE
8
Layer 1
10
38.719655
20
56.686356
11
39.001877
21
56.761977
0
LINE
8
Layer 1
10
39.001877
20
56.761977
11
39.208478
21
56.968578
0
LINE
8
Layer 1
10
39.208478
20
56.968578
11
39.284099
21
57.250800
0
LINE
8
Layer 1
10
39.284099
20
57.250800
11
39.284100
21
57.250800
0
LINE
8
Layer 1
10
30.532900
20
30.988600
11
30.321233
21
31.355217
0
LINE
8
Layer 1
10
30.321233
20
31.355217
11
29.897900
21
31.355217
0
LINE
8
Layer 1
10
29.897900
20
31.355217
11
29.686234
21
30.988600
0
LINE
8
Layer 1
10
29.686234
20
30.988600
11
29.897900
21
30.621983
0
LINE
8
Layer 1
10
29.897900
20
30.621983
11
30.321233
21
30.621983
0
LINE
8
Layer 1
10
30.321233
20
30.621983
11
30.532900
21
30.988600
0
LINE
8
Layer 1
10
30.532900
20
30.988600
11
30.532900
21
30.988600
0
LINE
8
Layer 1
10
40.974100
20
30.989700
11
40.762433
21
31.356317
0
LINE
8
Layer 1
10
40.762433
20
31.356317
11
40.339100
21
31.356317
0
LINE
8
Layer 1
10
40.339100
20
31.356317
11
40.127434
21
30.989700
0
LINE
8
Layer 1
10
40.127434
20
30.989700
11
40.339100
21
30.623083
0
LINE
8
Layer 1
10
40.339100
20
30.623083
11
40.762433
21
30.623083
0
LINE
8
Layer 1
10
40.762433
20
30.623083
11
40.974100
21
30.989700
0
LINE
8
Layer 1
10
40.974100
20
30.989700
11
40.974100
21
30.989700
0
LINE
8
Layer 1
10
25.737600
20
25.062000
11
24.890900
21
25.062000
0
LINE
8
Layer 1
10
24.890900
20
25.062000
11
24.890900
21
27.884200
0
LINE
8
Layer 1
10
24.890900
20
27.884200
11
25.737600
21
27.884200
0
LINE
8
Layer 1
10
25.737600
20
27.884200
11
25.737600
21
25.062000
0
LINE
8
Layer 1
10
45.770100
20
27.886300
11
44.923434
21
27.886150
0
LINE
8
Layer 1
10
44.923434
20
27.886150
11
44.923998
21
25.063930
0
LINE
8
Layer 1
10
44.923998
20
25.063930
11
45.770664
21
25.064080
0
LINE
8
Layer 1
10
45.770664
20
25.064080
11
45.770100
21
27.886300
0
LINE
8
Layer 1
10
30.532900
20
20.543700
11
30.321233
21
20.910317
0
LINE
8
Layer 1
10
30.321233
20
20.910317
11
29.897900
21
20.910317
0
LINE
8
Layer 1
10
29.897900
20
20.910317
11
29.686234
21
20.543700
0
LINE
8
Layer 1
10
29.686234
20
20.543700
11
29.897900
21
20.177083
0
LINE
8
Layer 1
10
29.897900
20
20.177083
11
30.321233
21
20.177083
0
LINE
8
Layer 1
10
30.321233
20
20.177083
11
30.532900
21
20.543700
0
LINE
8
Layer 1
10
30.532900
20
20.543700
11
30.532900
21
20.543700
0
LINE
8
Layer 1
10
40.974100
20
20.542600
11
40.762433
21
20.909217
0
LINE
8
Layer 1
10
40.762433
20
20.909217
11
40.339100
21
20.909217
0
LINE
8
Layer 1
10
40.339100
20
20.909217
11
40.127434
21
20.542600
0
LINE
8
Layer 1
10
40.127434
20
20.542600
11
40.339100
21
20.175983
0
LINE
8
Layer 1
10
40.339100
20
20.175983
11
40.762433
21
20.175983
0
LINE
8
Layer 1
10
40.762433
20
20.175983
11
40.974100
21
20.542600
0
LINE
8
Layer 1
10
40.974100
20
20.542600
11
40.974100
21
20.542600
 0 
ENDSEC
 0 
EOF